<?xml version="1.0" encoding="UTF-8"?>
<svg width="60px" height="60px" viewBox="0 0 60 60" version="1.1" xmlns="http://www.w3.org/2000/svg" xmlns:xlink="http://www.w3.org/1999/xlink">
    <!-- Generator: Sketch 48.2 (47327) - http://www.bohemiancoding.com/sketch -->
    <title>icn-loadFile</title>
    <desc>Created with Sketch.</desc>
    <defs></defs>
    <g id="1.4" stroke="none" stroke-width="1" fill="none" fill-rule="evenodd">
        <g id="icn-loadFile" fill-rule="nonzero">
            <g id="file-copy" transform="translate(2.000000, 1.000000)">
                <g id="Group">
                    <polygon id="Shape" fill="#E3E3E3" points="45 14 31 0 0 0 0 58 45 58"></polygon>
                    <g transform="translate(9.000000, 13.000000)" fill="#CDCDCD" id="Shape">
                        <path d="M1,10 L26,10 C26.552,10 27,9.553 27,9 C27,8.447 26.552,8 26,8 L1,8 C0.448,8 0,8.447 0,9 C0,9.553 0.448,10 1,10 Z"></path>
                        <path d="M1,2 L11,2 C11.552,2 12,1.553 12,1 C12,0.447 11.552,0 11,0 L1,0 C0.448,0 0,0.447 0,1 C0,1.553 0.448,2 1,2 Z"></path>
                        <path d="M26,16 L1,16 C0.448,16 0,16.447 0,17 C0,17.553 0.448,18 1,18 L26,18 C26.552,18 27,17.553 27,17 C27,16.447 26.552,16 26,16 Z"></path>
                        <path d="M26,24 L1,24 C0.448,24 0,24.447 0,25 C0,25.553 0.448,26 1,26 L26,26 C26.552,26 27,25.553 27,25 C27,24.447 26.552,24 26,24 Z"></path>
                        <path d="M26,32 L1,32 C0.448,32 0,32.447 0,33 C0,33.553 0.448,34 1,34 L26,34 C26.552,34 27,33.553 27,33 C27,32.447 26.552,32 26,32 Z"></path>
                    </g>
                    <polygon id="Shape" fill="#F1F1F1" points="31 0 31 14 45 14"></polygon>
                </g>
                <g id="Group" transform="translate(34.000000, 36.000000)">
                    <rect id="Rectangle-path" fill="#004B8D" x="0" y="0" width="22" height="22"></rect>
                    <rect id="Rectangle-path" fill="#FFFFFF" x="10" y="6" width="2" height="16"></rect>
                    <polygon id="Shape" fill="#FFFFFF" points="16.293 12.707 11 7.414 5.707 12.707 4.293 11.293 11 4.586 17.707 11.293"></polygon>
                </g>
            </g>
        </g>
    </g>
</svg>